<svg width="16" height="16" viewBox="0 0 16 16" fill="none" xmlns="http://www.w3.org/2000/svg">
<path d="M7.86666 7.26667C6.35333 6.87333 5.86666 6.46667 5.86666 5.83333C5.86666 5.10667 6.53999 4.6 7.66666 4.6C8.61333 4.6 9.08666 4.96 9.25999 5.53333C9.33999 5.8 9.55999 6 9.83999 6H10.04C10.48 6 10.7933 5.56667 10.64 5.15333C10.36 4.36667 9.70666 3.71333 8.66666 3.46V3C8.66666 2.44667 8.21999 2 7.66666 2C7.11333 2 6.66666 2.44667 6.66666 3V3.44C5.37333 3.72 4.33333 4.56 4.33333 5.84667C4.33333 7.38667 5.60666 8.15333 7.46666 8.6C9.13333 9 9.46666 9.58667 9.46666 10.2067C9.46666 10.6667 9.13999 11.4 7.66666 11.4C6.56666 11.4 5.99999 11.0067 5.77999 10.4467C5.67999 10.1867 5.45333 10 5.17999 10H4.99333C4.54666 10 4.23333 10.4533 4.39999 10.8667C4.77999 11.7933 5.66666 12.34 6.66666 12.5533V13C6.66666 13.5533 7.11333 14 7.66666 14C8.21999 14 8.66666 13.5533 8.66666 13V12.5667C9.96666 12.32 11 11.5667 11 10.2C11 8.30667 9.37999 7.66 7.86666 7.26667Z" fill="#95999C"/>
</svg>
