<svg width="68" height="26" viewBox="0 0 68 26" fill="none" xmlns="http://www.w3.org/2000/svg">
<path d="M0.335938 25V6.43945H4.27148V25H0.335938ZM7.78809 0.713867V0.980469C7.54264 1.21745 7.22103 1.50944 6.82324 1.85645C6.42546 2.20345 5.99805 2.56738 5.54102 2.94824C5.08398 3.32064 4.63542 3.68034 4.19531 4.02734C3.75521 4.36589 3.37012 4.64941 3.04004 4.87793H0.462891V4.53516C0.742188 4.21354 1.0638 3.83268 1.42773 3.39258C1.80013 2.94401 2.16829 2.48275 2.53223 2.00879C2.89616 1.53483 3.20085 1.10319 3.44629 0.713867H7.78809ZM16.7002 10.54C18.2152 10.54 19.4339 10.9548 20.3564 11.7842C21.279 12.6051 21.7402 13.9255 21.7402 15.7451V25H17.8682V16.71C17.8682 15.6943 17.682 14.9284 17.3096 14.4121C16.9456 13.8958 16.3701 13.6377 15.583 13.6377C14.3981 13.6377 13.5898 14.0397 13.1582 14.8438C12.7266 15.6478 12.5107 16.8073 12.5107 18.3223V25H8.63867V10.8066H11.5967L12.1172 12.6221H12.333C12.6377 12.1312 13.0143 11.7334 13.4629 11.4287C13.9199 11.124 14.4235 10.8997 14.9736 10.7559C15.5322 10.612 16.1077 10.54 16.7002 10.54ZM29.5986 10.8066V25H25.7266V10.8066H29.5986ZM27.6689 5.24609C28.2445 5.24609 28.7396 5.38151 29.1543 5.65234C29.569 5.91471 29.7764 6.40983 29.7764 7.1377C29.7764 7.8571 29.569 8.35645 29.1543 8.63574C28.7396 8.90658 28.2445 9.04199 27.6689 9.04199C27.085 9.04199 26.5856 8.90658 26.1709 8.63574C25.7646 8.35645 25.5615 7.8571 25.5615 7.1377C25.5615 6.40983 25.7646 5.91471 26.1709 5.65234C26.5856 5.38151 27.085 5.24609 27.6689 5.24609ZM39.4375 25.2539C38.0326 25.2539 36.835 25 35.8447 24.4922C34.8545 23.9759 34.1012 23.1803 33.585 22.1055C33.0687 21.0306 32.8105 19.6553 32.8105 17.9795C32.8105 16.2445 33.1025 14.8311 33.6865 13.7393C34.279 12.639 35.0957 11.8307 36.1367 11.3145C37.1862 10.7982 38.4007 10.54 39.7803 10.54C40.762 10.54 41.6084 10.6374 42.3193 10.832C43.0387 11.0182 43.665 11.2425 44.1982 11.5049L43.0557 14.501C42.4463 14.2555 41.8792 14.0566 41.3545 13.9043C40.8298 13.7435 40.305 13.6631 39.7803 13.6631C39.1032 13.6631 38.5404 13.8239 38.0918 14.1455C37.6432 14.4587 37.3089 14.9326 37.0889 15.5674C36.8688 16.2021 36.7588 16.9977 36.7588 17.9541C36.7588 18.8936 36.8773 19.6722 37.1143 20.29C37.3512 20.9079 37.694 21.3691 38.1426 21.6738C38.5911 21.9701 39.137 22.1182 39.7803 22.1182C40.5843 22.1182 41.2995 22.0124 41.9258 21.8008C42.5521 21.5807 43.1615 21.276 43.7539 20.8867V24.2002C43.1615 24.5726 42.5394 24.8392 41.8877 25C41.2445 25.1693 40.4277 25.2539 39.4375 25.2539ZM50.9268 10.8066V25H47.0547V10.8066H50.9268ZM48.9971 5.24609C49.5726 5.24609 50.0677 5.38151 50.4824 5.65234C50.8971 5.91471 51.1045 6.40983 51.1045 7.1377C51.1045 7.8571 50.8971 8.35645 50.4824 8.63574C50.0677 8.90658 49.5726 9.04199 48.9971 9.04199C48.4131 9.04199 47.9137 8.90658 47.499 8.63574C47.0928 8.35645 46.8896 7.8571 46.8896 7.1377C46.8896 6.40983 47.0928 5.91471 47.499 5.65234C47.9137 5.38151 48.4131 5.24609 48.9971 5.24609ZM67.9004 17.8779C67.9004 19.0628 67.7396 20.1123 67.418 21.0264C67.1048 21.9404 66.6436 22.7148 66.0342 23.3496C65.4333 23.9759 64.7054 24.4499 63.8506 24.7715C63.0042 25.0931 62.0479 25.2539 60.9814 25.2539C59.9827 25.2539 59.0645 25.0931 58.2266 24.7715C57.3971 24.4499 56.6735 23.9759 56.0557 23.3496C55.4463 22.7148 54.9723 21.9404 54.6338 21.0264C54.3037 20.1123 54.1387 19.0628 54.1387 17.8779C54.1387 16.3037 54.418 14.9707 54.9766 13.8789C55.5352 12.7871 56.3307 11.9577 57.3633 11.3906C58.3958 10.8236 59.6273 10.54 61.0576 10.54C62.3864 10.54 63.5628 10.8236 64.5869 11.3906C65.6195 11.9577 66.4277 12.7871 67.0117 13.8789C67.6042 14.9707 67.9004 16.3037 67.9004 17.8779ZM58.0869 17.8779C58.0869 18.8089 58.1885 19.5918 58.3916 20.2266C58.5947 20.8613 58.9121 21.3395 59.3438 21.6611C59.7754 21.9827 60.3382 22.1436 61.0322 22.1436C61.7178 22.1436 62.2721 21.9827 62.6953 21.6611C63.127 21.3395 63.4401 20.8613 63.6348 20.2266C63.8379 19.5918 63.9395 18.8089 63.9395 17.8779C63.9395 16.9385 63.8379 16.1598 63.6348 15.542C63.4401 14.9157 63.127 14.446 62.6953 14.1328C62.2637 13.8197 61.7008 13.6631 61.0068 13.6631C59.9827 13.6631 59.238 14.0143 58.7725 14.7168C58.3154 15.4193 58.0869 16.473 58.0869 17.8779Z" fill="white"/>
</svg>
