<svg width="16" height="16" viewBox="0 0 16 16" fill="none" xmlns="http://www.w3.org/2000/svg">
<path d="M7.99999 4.33333C10.5267 4.33333 12.78 5.75333 13.88 8C12.78 10.2467 10.5333 11.6667 7.99999 11.6667C5.46666 11.6667 3.21999 10.2467 2.11999 8C3.21999 5.75333 5.47332 4.33333 7.99999 4.33333ZM7.99999 3C4.66666 3 1.81999 5.07333 0.666656 8C1.81999 10.9267 4.66666 13 7.99999 13C11.3333 13 14.18 10.9267 15.3333 8C14.18 5.07333 11.3333 3 7.99999 3ZM7.99999 6.33333C8.91999 6.33333 9.66666 7.08 9.66666 8C9.66666 8.92 8.91999 9.66667 7.99999 9.66667C7.07999 9.66667 6.33332 8.92 6.33332 8C6.33332 7.08 7.07999 6.33333 7.99999 6.33333ZM7.99999 5C6.34666 5 4.99999 6.34667 4.99999 8C4.99999 9.65333 6.34666 11 7.99999 11C9.65332 11 11 9.65333 11 8C11 6.34667 9.65332 5 7.99999 5Z" fill="#95999C"/>
</svg>
